# xmcd
#
# Track frame offsets:
#       150
#       13090
#       34645
#       46113
#       72340
#       98570
#       117405
#       133408
#       154810
#       168147
#       183318
#       202720
#       229828
#       256280
#
# Disc length: 3715 seconds
#
# Revision: 3
# Processed by: cddbd v1.4PL0 Copyright (c) Steve Scherf et al.
# Submitted via: CD-DA_X-Tractor v0.21
#
DISCID=b20e810e
DTITLE=Various Artist - Evidence Blues Sampler - The T
DYEAR=1994
DGENRE=Blues
TTITLE0=Hip Link Chain - House Cat Blues
TTITLE1=Eddie C. Campbell - Don't Throw Your Love On Me So Strong
TTITLE2=Cousin Joe - Box Car Shorty
TTITLE3=Larry Davis - Giving Up On Love
TTITLE4=Lucky Peterson - Little Red Rooster
TTITLE5=Jimmy Witherspoon - Night Life
TTITLE6=Jimmy Rogers - That's Alright
TTITLE7=Melvin Taylor - Cold, Cold Feeling
TTITLE8=Luther Johnson - You've Got Me Running
TTITLE9=Honeyboy Edwards - Don't You Lie To Me
TTITLE10=Junior Wells With Buddy Guy - It Hurts Me Too
TTITLE11=Jimmy Dawkins - You Just A Baby Child
TTITLE12=Hubert Sumlin - Broke And Hungry
TTITLE13=Otis Rush - I Can't Quit You Baby
EXTD=
EXTT0=
EXTT1=
EXTT2=
EXTT3=
EXTT4=
EXTT5=
EXTT6=
EXTT7=
EXTT8=
EXTT9=
EXTT10=
EXTT11=
EXTT12=
EXTT13=
PLAYORDER=
